<svg width="256" height="32" viewBox="0 0 256 32" fill="none" xmlns="http://www.w3.org/2000/svg">
<g clip-path="url(#clip0_0_1)">
<rect x="192" y="28" width="16" height="4" fill="#09F911" fill-opacity="0.01"/>
<rect x="208" y="28" width="16" height="4" fill="#9D74E3" fill-opacity="0.356863"/>
<rect x="224" y="28" width="16" height="4" fill="#D84156" fill-opacity="0.772549"/>
<rect x="240" y="28" width="16" height="4" fill="#635688" fill-opacity="0.752941"/>
<rect x="224" y="24" width="16" height="4" fill="#737564" fill-opacity="0.498039"/>
<rect x="240" y="24" width="16" height="4" fill="#637865" fill-opacity="0.447059"/>
<path d="M51 0.07C59.8366 0.07 67 7.23344 67 16.07C67 24.9066 59.8366 32.07 51 32.07C42.1634 32.07 35 24.9066 35 16.07C35 7.23344 42.1634 0.07 51 0.07ZM51 4.07C44.3726 4.07 39 9.44258 39 16.07C39 22.6974 44.3726 28.07 51 28.07C57.6274 28.07 63 22.6974 63 16.07C63 9.44258 57.6274 4.07 51 4.07Z" fill="#FF383C"/>
<path d="M11.0605 23L7.87695 12.2773H6.88086V9.13281H8.6582L11.8418 19.8555H12.4277V23H11.0605ZM5.34766 23V9.13281H7.58398V23H5.34766ZM12.1348 23V9.13281H14.3711V23H12.1348ZM21.5781 23.1953C18.1016 23.1953 16.3633 20.8516 16.3633 16.1641C16.3633 11.3464 18.1016 8.9375 21.5781 8.9375C25.0547 8.9375 26.793 11.3464 26.793 16.1641C26.793 20.8516 25.0547 23.1953 21.5781 23.1953ZM21.5781 20.998C23.4271 20.998 24.3516 19.3867 24.3516 16.1641C24.3516 12.8047 23.4271 11.125 21.5781 11.125C19.7292 11.125 18.8047 12.8047 18.8047 16.1641C18.8047 19.3867 19.7292 20.998 21.5781 20.998ZM39.498 23L43.502 9.13281H46.5293L50.5332 23H48.043L45.1035 11.8379H44.9277L41.9883 23H39.498ZM41.4512 20.0703V17.9023H48.4824V20.0703H41.4512ZM55.5625 23V9.13281H57.8867V23H55.5625ZM52.418 23V20.8613H61.0508V23H52.418ZM52.418 11.2617V9.13281H61.0508V11.2617H52.418ZM80.1719 23.1953C78.707 23.1953 77.5677 22.7266 76.7539 21.7891C75.9466 20.8516 75.543 19.5299 75.543 17.8242C75.543 16.112 75.9466 14.7904 76.7539 13.8594C77.5677 12.9219 78.707 12.4531 80.1719 12.4531C81.6432 12.4531 82.7826 12.9219 83.5898 13.8594C84.3971 14.7904 84.8008 16.112 84.8008 17.8242C84.8008 19.5299 84.3971 20.8516 83.5898 21.7891C82.7826 22.7266 81.6432 23.1953 80.1719 23.1953ZM80.1719 20.9492C80.8424 20.9492 81.3568 20.679 81.7148 20.1387C82.0794 19.5918 82.2617 18.8203 82.2617 17.8242C82.2617 16.8216 82.0794 16.0501 81.7148 15.5098C81.3568 14.9694 80.8424 14.6992 80.1719 14.6992C79.5078 14.6992 78.9935 14.9694 78.6289 15.5098C78.2643 16.0501 78.082 16.8216 78.082 17.8242C78.082 18.8203 78.2643 19.5918 78.6289 20.1387C78.9935 20.679 79.5078 20.9492 80.1719 20.9492ZM93.7949 23V16.6523C93.7949 16.0273 93.6517 15.5456 93.3652 15.207C93.0788 14.8685 92.6751 14.6992 92.1543 14.6992C90.709 14.6992 89.9863 15.6562 89.9863 17.5703L89.3809 14.5234H90.2207C90.2988 13.8268 90.5397 13.3092 90.9434 12.9707C91.3535 12.6257 91.9622 12.4531 92.7695 12.4531C93.8633 12.4531 94.7096 12.7852 95.3086 13.4492C95.9076 14.1133 96.207 15.0508 96.207 16.2617V23H93.7949ZM87.5742 23V12.6484H89.7422L89.9863 14.8359V23H87.5742ZM117.398 23.1953C115.699 23.1953 114.472 22.8503 113.717 22.1602C112.962 21.4701 112.584 20.3665 112.584 18.8496V17.3359H114.986V18.6543C114.986 19.4551 115.188 20.0378 115.592 20.4023C116.002 20.7669 116.669 20.9492 117.594 20.9492C117.9 20.9492 118.229 20.9329 118.58 20.9004C118.932 20.8613 119.332 20.8125 119.781 20.7539L120.016 22.9609C119.579 23.0391 119.15 23.0977 118.727 23.1367C118.31 23.1758 117.867 23.1953 117.398 23.1953ZM112.584 18.0195V9.52344H114.986V18.0195H112.584ZM110.055 14.7871V12.6484H119.625V14.7871H110.055ZM128.951 23V16.5547C128.951 15.9427 128.808 15.474 128.521 15.1484C128.235 14.8164 127.831 14.6504 127.311 14.6504C125.865 14.6504 125.143 15.5911 125.143 17.4727L124.537 14.5234H125.377C125.455 13.8268 125.696 13.3092 126.1 12.9707C126.51 12.6257 127.118 12.4531 127.926 12.4531C129.02 12.4531 129.866 12.7852 130.465 13.4492C131.064 14.1133 131.363 15.0508 131.363 16.2617V23H128.951ZM122.73 23V8.35156H125.143V23H122.73ZM139.713 23.1953C137.936 23.1953 136.562 22.7331 135.592 21.8086C134.622 20.8776 134.137 19.543 134.137 17.8047C134.137 16.112 134.547 14.7969 135.367 13.8594C136.194 12.9219 137.356 12.4531 138.854 12.4531C140.299 12.4531 141.415 12.8828 142.203 13.7422C142.997 14.6016 143.395 15.8483 143.395 17.4824C143.395 17.9577 143.375 18.4036 143.336 18.8203H135.875V17.082H141.09C141.09 16.2943 140.895 15.6888 140.504 15.2656C140.113 14.8424 139.57 14.6309 138.873 14.6309C138.111 14.6309 137.519 14.8978 137.096 15.4316C136.673 15.9655 136.461 16.724 136.461 17.707C136.461 18.7682 136.764 19.5788 137.369 20.1387C137.975 20.6921 138.834 20.9688 139.947 20.9688C140.403 20.9688 140.849 20.946 141.285 20.9004C141.728 20.8483 142.177 20.7799 142.633 20.6953L142.887 22.9219C142.249 23.0391 141.663 23.1139 141.129 23.1465C140.595 23.179 140.123 23.1953 139.713 23.1953ZM161.031 23V9.13281H163.355V23H161.031ZM157.887 23V20.8613H166.52V23H157.887ZM157.887 11.2617V9.13281H166.52V11.2617H157.887ZM175.826 23V16.6523C175.826 16.0273 175.683 15.5456 175.396 15.207C175.11 14.8685 174.706 14.6992 174.186 14.6992C172.74 14.6992 172.018 15.6562 172.018 17.5703L171.412 14.5234H172.252C172.33 13.8268 172.571 13.3092 172.975 12.9707C173.385 12.6257 173.993 12.4531 174.801 12.4531C175.895 12.4531 176.741 12.7852 177.34 13.4492C177.939 14.1133 178.238 15.0508 178.238 16.2617V23H175.826ZM169.605 23V12.6484H171.773L172.018 14.8359V23H169.605ZM187.711 23.1953C186.012 23.1953 184.785 22.8503 184.029 22.1602C183.274 21.4701 182.896 20.3665 182.896 18.8496V17.3359H185.299V18.6543C185.299 19.4551 185.501 20.0378 185.904 20.4023C186.314 20.7669 186.982 20.9492 187.906 20.9492C188.212 20.9492 188.541 20.9329 188.893 20.9004C189.244 20.8613 189.645 20.8125 190.094 20.7539L190.328 22.9609C189.892 23.0391 189.462 23.0977 189.039 23.1367C188.622 23.1758 188.18 23.1953 187.711 23.1953ZM182.896 18.0195V9.52344H185.299V18.0195H182.896ZM180.367 14.7871V12.6484H189.938V14.7871H180.367ZM198.307 23.1953C196.529 23.1953 195.156 22.7331 194.186 21.8086C193.215 20.8776 192.73 19.543 192.73 17.8047C192.73 16.112 193.141 14.7969 193.961 13.8594C194.788 12.9219 195.95 12.4531 197.447 12.4531C198.893 12.4531 200.009 12.8828 200.797 13.7422C201.591 14.6016 201.988 15.8483 201.988 17.4824C201.988 17.9577 201.969 18.4036 201.93 18.8203H194.469V17.082H199.684C199.684 16.2943 199.488 15.6888 199.098 15.2656C198.707 14.8424 198.163 14.6309 197.467 14.6309C196.705 14.6309 196.113 14.8978 195.689 15.4316C195.266 15.9655 195.055 16.724 195.055 17.707C195.055 18.7682 195.357 19.5788 195.963 20.1387C196.568 20.6921 197.428 20.9688 198.541 20.9688C198.997 20.9688 199.443 20.946 199.879 20.9004C200.322 20.8483 200.771 20.7799 201.227 20.6953L201.48 22.9219C200.842 23.0391 200.257 23.1139 199.723 23.1465C199.189 23.179 198.717 23.1953 198.307 23.1953ZM208.541 18.5469L207.936 15.1094H208.795C208.906 13.3385 209.814 12.4531 211.52 12.4531C212.535 12.4531 213.297 12.7917 213.805 13.4688C214.312 14.1458 214.566 15.168 214.566 16.5352H212.174C212.174 15.8646 212.06 15.3828 211.832 15.0898C211.611 14.7969 211.249 14.6504 210.748 14.6504C210.006 14.6504 209.452 14.9889 209.088 15.666C208.723 16.3431 208.541 17.3034 208.541 18.5469ZM203.902 23V20.959H211.012V23H203.902ZM206.139 23V12.6484H208.15L208.541 15.6172V23H206.139ZM204.293 14.6895V12.6484H208.014L208.209 14.6895H204.293ZM222.701 23V16.6523C222.701 16.0273 222.558 15.5456 222.271 15.207C221.985 14.8685 221.581 14.6992 221.061 14.6992C219.615 14.6992 218.893 15.6562 218.893 17.5703L218.287 14.5234H219.127C219.205 13.8268 219.446 13.3092 219.85 12.9707C220.26 12.6257 220.868 12.4531 221.676 12.4531C222.77 12.4531 223.616 12.7852 224.215 13.4492C224.814 14.1133 225.113 15.0508 225.113 16.2617V23H222.701ZM216.48 23V12.6484H218.648L218.893 14.8359V23H216.48ZM233.463 23.1953C231.686 23.1953 230.312 22.7331 229.342 21.8086C228.372 20.8776 227.887 19.543 227.887 17.8047C227.887 16.112 228.297 14.7969 229.117 13.8594C229.944 12.9219 231.106 12.4531 232.604 12.4531C234.049 12.4531 235.165 12.8828 235.953 13.7422C236.747 14.6016 237.145 15.8483 237.145 17.4824C237.145 17.9577 237.125 18.4036 237.086 18.8203H229.625V17.082H234.84C234.84 16.2943 234.645 15.6888 234.254 15.2656C233.863 14.8424 233.32 14.6309 232.623 14.6309C231.861 14.6309 231.269 14.8978 230.846 15.4316C230.423 15.9655 230.211 16.724 230.211 17.707C230.211 18.7682 230.514 19.5788 231.119 20.1387C231.725 20.6921 232.584 20.9688 233.697 20.9688C234.153 20.9688 234.599 20.946 235.035 20.9004C235.478 20.8483 235.927 20.7799 236.383 20.6953L236.637 22.9219C235.999 23.0391 235.413 23.1139 234.879 23.1465C234.345 23.179 233.873 23.1953 233.463 23.1953ZM246.305 23.1953C244.605 23.1953 243.378 22.8503 242.623 22.1602C241.868 21.4701 241.49 20.3665 241.49 18.8496V17.3359H243.893V18.6543C243.893 19.4551 244.094 20.0378 244.498 20.4023C244.908 20.7669 245.576 20.9492 246.5 20.9492C246.806 20.9492 247.135 20.9329 247.486 20.9004C247.838 20.8613 248.238 20.8125 248.688 20.7539L248.922 22.9609C248.486 23.0391 248.056 23.0977 247.633 23.1367C247.216 23.1758 246.773 23.1953 246.305 23.1953ZM241.49 18.0195V9.52344H243.893V18.0195H241.49ZM238.961 14.7871V12.6484H248.531V14.7871H238.961Z" fill="#C8C8C8"/>
<rect x="60.1924" y="4.04918" width="4" height="30" transform="rotate(45 60.1924 4.04918)" fill="#FF383C"/>
</g>
<defs>
<clipPath id="clip0_0_1">
<rect width="256" height="32" fill="white"/>
</clipPath>
</defs>
</svg>
